Coordinates
version=1
nRows=5
nColumns=63
inDegrees=yes

Units are S.I. units (second, meters, Newtons, ...)
If the header above contains a line with 'inDegrees', this indicates whether rotational values are in degrees (yes) or radians (no).

endheader
time	pelvis_tilt	pelvis_list	pelvis_rotation	pelvis_tx	pelvis_ty	pelvis_tz	hip_flexion_r	hip_adduction_r	hip_rotation_r	knee_angle_r	knee_angle_r_beta	ankle_angle_r	subtalar_angle_r	mtp_angle_r	hip_flexion_l	hip_adduction_l	hip_rotation_l	knee_angle_l	knee_angle_l_beta	ankle_angle_l	subtalar_angle_l	mtp_angle_l	L5_S1_Flex_Ext	L5_S1_Lat_Bending	L5_S1_axial_rotation	L4_L5_Flex_Ext	L4_L5_Lat_Bending	L4_L5_axial_rotation	L3_L4_Flex_Ext	L3_L4_Lat_Bending	L3_L4_axial_rotation	L2_L3_Flex_Ext	L2_L3_Lat_Bending	L2_L3_axial_rotation	L1_L2_Flex_Ext	L1_L2_Lat_Bending	L1_L2_axial_rotation	L1_T12_Flex_Ext	L1_T12_Lat_Bending	L1_T12_axial_rotation	Abs_r3	Abs_r2	Abs_r1	Abs_t1	Abs_t2	neck_flexion	neck_bending	neck_rotation	arm_flex_r	arm_add_r	arm_rot_r	elbow_flex_r	pro_sup_r	wrist_flex_r	wrist_dev_r	arm_flex_l	arm_add_l	arm_rot_l	elbow_flex_l	pro_sup_l	wrist_flex_l	wrist_dev_l
      0.00000000	     -2.55538518	     -3.58974574	     90.76958754	      0.20861571	      0.66063249	      0.94096280	      7.14488015	     -3.35013533	     -3.36675384	      6.83033331	      0.11921181	     20.55626603	     10.09710391	      0.00000000	      7.02231854	      1.45837213	     -0.04080346	      5.18407580	      0.09047919	     22.62706248	     -5.65039100	      0.00000000	      0.22589964	     -0.66429311	      2.47837406	      0.41951821	     -0.88350984	      2.63327244	      0.37113051	     -1.61516227	      2.63327244	      0.25818069	     -1.61516227	      2.16857731	      0.20977040	     -1.35462651	      2.01367893	      0.12907905	     -1.02899003	      1.85878055	      1.61357851	     -7.51461652	     13.78397303	      0.00000000	      0.00000000	     25.16596726	     -4.06146670	    -35.42566504	     14.22793489	     -6.85884996	     53.06148394	     34.67526116	     72.13267695	      8.52378838	      7.64067217	     21.27294910	     -9.10743738	     75.30087286	     43.62474752	     74.17666946	     -9.68578298	     -4.05375075
      0.02127660	     -2.43619241	     -3.12666035	     89.56887487	      0.21015250	      0.66053302	      0.93985139	      6.82078170	     -3.20329550	     -3.33037100	      7.20958483	      0.12583099	     20.47266712	     11.27998813	      0.00000000	      6.09541060	      1.27212429	      0.23372868	      4.64311559	      0.08103765	     22.08819322	     -7.68797370	      0.00000000	      0.21104042	     -0.61083895	      2.27615739	      0.39192317	     -0.81241581	      2.41841723	      0.34671831	     -1.48519383	      2.41841723	      0.24119810	     -1.48519383	      1.99163772	      0.19597214	     -1.24562280	      1.84937788	      0.12058850	     -0.94618954	      1.70711804	      1.50744064	     -6.90993242	     12.65930455	      0.00000000	      0.00000000	     23.82503699	     -2.78002428	    -32.09682344	     16.22808028	     -7.11337799	     60.26631241	     34.59812045	     65.56590714	      8.94252765	      6.94759824	     19.47522155	    -10.34919834	     71.56403398	     44.82202444	     76.95659165	     -8.84093958	     -4.01152907
      0.04255319	     -2.35840327	     -2.84109534	     88.38792354	      0.21164365	      0.66038491	      0.93880584	      6.64823809	     -3.05560616	     -2.52894441	      7.42346045	      0.12956383	     20.35780019	     11.61224477	      0.00000000	      5.44632959	      1.09837014	     -0.70939408	      4.27186331	      0.07455808	     22.03430609	     -7.94592887	      0.00000000	      0.21102833	     -0.57613270	      2.22423646	      0.39190072	     -0.76625649	      2.36325124	      0.34669845	     -1.40080905	      2.36325124	      0.24118428	     -1.40080905	      1.94620690	      0.19596091	     -1.17484981	      1.80719212	      0.12058159	     -0.89242956	      1.66817735	      1.50735428	     -6.51732836	     12.37053593	      0.00000000	      0.00000000	     22.86925936	     -2.06022889	    -30.01279826	     17.72526788	     -7.34657106	     66.09596013	     34.80867901	     58.88127635	      8.77971000	      6.39604847	     18.42760573	    -11.14519439	     69.74831336	     45.67890243	     78.59269448	     -8.75291172	     -4.42886464
      0.06382979	     -2.28785477	     -2.64764729	     87.76497523	      0.21264903	      0.66024611	      0.93773983	      6.41686471	     -2.93703677	     -2.03045495	      7.41285523	      0.12937873	     20.34630406	     11.76927040	      0.00000000	      4.98570491	      0.96723365	     -1.30700451	      4.00825720	      0.06995729	     22.11620986	     -7.81362338	      0.00000000	      0.20420090	     -0.56212840	      2.23091942	      0.37922150	     -0.74763077	      2.37035189	      0.33548167	     -1.36675899	      2.37035189	      0.23338121	     -1.36675899	      1.95205449	      0.18962096	     -1.14629223	      1.81262203	      0.11668040	     -0.87073689	      1.67318957	      1.45858664	     -6.35890887	     12.40770455	      0.00000000	      0.00000000	     22.37882169	     -1.85459106	    -29.56912516	     17.91448127	     -7.44198520	     66.79293585	     35.31290230	     58.46573395	      8.94927567	      6.42500627	     18.12464726	    -11.66482383	     69.54923984	     46.34381568	     78.56684044	     -8.89469426	     -4.88531796
      0.08510638	     -2.21202385	     -2.56336759	     86.70837037	      0.21367392	      0.66008757	      0.93687902	      6.49239822	     -2.81451961	     -1.23867765	      7.60417854	      0.13271795	     20.40398885	     12.23339862	      0.00000000	      4.61667238	      0.81256236	     -3.04751894	      3.71759230	      0.06488423	     22.44711767	     -6.69862587	      0.00000000	      0.21788149	     -0.53620549	      2.34474897	      0.40462771	     -0.71315330	      2.49129578	      0.35795750	     -1.30373002	      2.49129578	      0.24901675	     -1.30373002	      2.05165535	      0.20232475	     -1.09343023	      1.90510854	      0.12449748	     -0.83058230	      1.75856173	      1.55630569	     -6.06566371	     13.04079036	      0.00000000	      0.00000000	     22.20031120	     -1.92319906	    -28.76244212	     18.45328292	     -7.63735734	     69.02887166	     35.43258428	     56.31900142	      8.99289573	      5.76773485	     17.80491904	    -11.85361092	     69.27134257	     46.73776885	     79.02793818	     -9.56348829	     -5.67896836
